:SAMPLES-PER-SECOND 30
:FULLY-SPECIFIED
:DEGREES
219
root  -30.0001 40.9769 3.19029 -167.564 -80.0258 164.824
RightUpLeg  -0.757533 -11.2776 -11.3361
RightLeg  10.4389 -1.16141 1.2728
RightFoot  -5.21085 -0.258311 4.15861
RightToes  0.000482159 0.542163 -0.142577
Spine  6.97691 0.450399 7.23933
Spine1  16.3186 2.93907 -6.02066
HEad  29.001 -0.623146 -4.90536
LeftShoulder1  7.31141 -11.9221 -41.0807
LeftArm  -8.61195 14.2524 -31.0595
LeftForeArm  37.5317 -13.6092 -4.72985
LeftHand  -0.25398 0.0180481 5.50724
RightShoulder  5.92457 10.3305 36.8212
RightArm  3.53691 8.62199 40.4885
RightForeArm  10.6212 16.6821 5.98882
RightHand  -0.982048 2.56814 -14.5227
LeftUpLeg  -3.00974 5.72934 4.23379
LeftLeg  -0.865619 12.4897 -4.86999
LeftFoot  7.22379 0.11502 -0.972838
LeftToes  1.06244e-005 4.65856e-005 -8.18505e-006
220
root  -29.8051 40.9763 2.84964 -169.621 -80.3117 166.617
RightUpLeg  -0.698194 -11.2266 -10.4775
RightLeg  10.7039 -1.56428 1.48994
RightFoot  -5.32135 -0.21464 3.39079
RightToes  0.000482159 0.542163 -0.142577
Spine  6.79187 0.372872 7.54772
Spine1  16.7503 2.85369 -5.8909
HEad  32.1619 0.249652 -4.73726
LeftShoulder1  7.25011 -11.8206 -40.9995
LeftArm  -8.51243 14.6884 -31.148
LeftForeArm  35.8335 -15.3719 -4.31161
LeftHand  -0.25398 0.0180481 5.50724
RightShoulder  5.82717 10.1702 36.6172
RightArm  4.22463 8.69907 40.4582
RightForeArm  9.67235 17.3998 5.77814
RightHand  -1.01295 2.69468 -14.745
LeftUpLeg  -2.79416 6.07978 5.14441
LeftLeg  -1.17759 11.8916 -4.76542
LeftFoot  7.80208 0.204718 -1.49609
LeftToes  1.06244e-005 4.65856e-005 -8.18505e-006
221
root  -29.587 40.9604 2.49909 -171.67 -80.6696 168.406
RightUpLeg  -0.764819 -11.2323 -9.58086
RightLeg  11.158 -2.00606 1.64925
RightFoot  -5.52158 -0.171706 2.63773
RightToes  0.000482159 0.542163 -0.142577
Spine  6.75596 0.233058 7.84974
Spine1  17.1323 2.70791 -5.76105
HEad  35.1605 0.922258 -4.4681
LeftShoulder1  7.18093 -11.7471 -40.7876
LeftArm  -8.58002 14.4716 -31.3204
LeftForeArm  34.7694 -16.6332 -4.00487
LeftHand  -0.25398 0.0180481 5.50724
RightShoulder  5.75764 10.0718 36.4196
RightArm  4.22271 8.84764 40.4741
RightForeArm  9.63099 17.5596 5.71065
RightHand  -1.0039 2.63339 -14.7217
LeftUpLeg  -2.78585 6.39815 6.03471
LeftLeg  -1.20571 11.1992 -4.56623
LeftFoot  8.33094 0.302605 -2.03889
LeftToes  1.06244e-005 4.65856e-005 -8.18505e-006
222
root  -29.3483 40.9326 2.14062 -173.84 -81.0444 170.329
RightUpLeg  -0.913026 -11.2184 -8.63306
RightLeg  11.6701 -2.49786 1.74071
RightFoot  -5.7591 -0.134523 1.95585
RightToes  0.000482159 0.542163 -0.142577
Spine  6.89789 0.0659578 8.1577
Spine1  17.4101 2.52793 -5.60162
HEad  37.8082 1.51214 -4.3605
LeftShoulder1  7.12249 -11.6974 -40.5704
LeftArm  -8.5499 13.635 -31.4558
LeftForeArm  34.4722 -17.2639 -3.86986
LeftHand  -0.25398 0.0180481 5.50724
RightShoulder  5.71718 10.0325 36.2483
RightArm  3.76974 9.02399 40.4456
RightForeArm  10.0076 17.2088 5.80688
RightHand  -1.00622 2.64566 -14.7332
LeftUpLeg  -2.92043 6.69811 6.91383
LeftLeg  -1.08732 10.3905 -4.30566
LeftFoot  8.81717 0.398049 -2.5424
LeftToes  1.06244e-005 4.65856e-005 -8.18505e-006
223
root  -29.0941 40.8969 1.78123 -175.953 -81.466 172.224
RightUpLeg  -1.11118 -11.2723 -7.73084
RightLeg  12.179 -2.97065 1.85729
RightFoot  -5.97634 -0.10175 1.305
RightToes  0.000482159 0.542163 -0.142577
Spine  7.12024 -0.128414 8.43049
Spine1  17.7033 2.30201 -5.37684
HEad  39.9832 2.0606 -4.27319
LeftShoulder1  7.08349 -11.6901 -40.3498
LeftArm  -8.455 12.3194 -31.5717
LeftForeArm  34.4931 -17.5191 -3.82723
LeftHand  -0.25398 0.0180481 5.50724
RightShoulder  5.69428 10.0216 36.1164
RightArm  3.08471 9.2237 40.3628
RightForeArm  10.5277 16.562 6.00596
RightHand  -1.03077 2.78062 -14.8475
LeftUpLeg  -3.11667 6.98604 7.7621
LeftLeg  -1.03203 9.66294 -4.07261
LeftFoot  9.36305 0.50155 -3.05825
LeftToes  1.06244e-005 4.65856e-005 -8.18505e-006
224
root  -28.8323 40.8577 1.43262 -177.628 -82.0714 173.717
RightUpLeg  -1.30098 -11.5242 -7.01913
RightLeg  12.6489 -3.4244 2.10408
RightFoot  -6.15669 -0.0713571 0.652964
RightToes  0.000482159 0.542163 -0.142577
Spine  7.28055 -0.397308 8.59617
Spine1  18.2543 1.9645 -5.04647
HEad  41.816 2.45662 -4.01627
LeftShoulder1  7.0533 -11.7148 -40.091
LeftArm  -8.39579 10.6041 -31.7418
LeftForeArm  34.459 -17.7925 -3.78114
LeftHand  -0.25398 0.0180481 5.50724
RightShoulder  5.69131 10.0375 36.0467
RightArm  2.42805 9.46819 40.1785
RightForeArm  11.0916 15.9343 6.1953
RightHand  -1.04091 2.85185 -14.8669
LeftUpLeg  -3.34912 7.18972 8.47885
LeftLeg  -1.12282 8.98984 -3.87476
LeftFoot  10.0058 0.620272 -3.6152
LeftToes  1.06244e-005 4.65856e-005 -8.18505e-006
225
root  -28.5691 40.8196 1.10569 -178.799 -82.8954 174.725
RightUpLeg  -1.43464 -11.877 -6.50262
RightLeg  13.0206 -3.99572 2.4358
RightFoot  -6.30488 -0.0446057 0.0418247
RightToes  0.000482159 0.542163 -0.142577
Spine  7.41712 -0.745849 8.66661
Spine1  19.0557 1.51406 -4.63578
HEad  43.4561 2.58404 -3.64314
LeftShoulder1  7.0396 -11.7672 -39.8558
LeftArm  -8.2208 8.5515 -31.9347
LeftForeArm  34.3625 -18.2615 -3.70402
LeftHand  -0.25398 0.0180481 5.50724
RightShoulder  5.70673 10.0914 35.9947
RightArm  1.98652 9.67474 39.8619
RightForeArm  11.5677 15.4743 6.33102
RightHand  -1.03381 2.84837 -14.7744
LeftUpLeg  -3.61876 7.26698 9.00632
LeftLeg  -1.31442 8.0284 -3.6722
LeftFoot  10.5571 0.718632 -4.04879
LeftToes  1.06244e-005 4.65856e-005 -8.18505e-006
226
root  -28.3085 40.7808 0.808289 -179.727 -83.7887 175.501
RightUpLeg  -1.57282 -12.1514 -6.06096
RightLeg  13.3377 -4.73375 2.70349
RightFoot  -6.44098 -0.022977 -0.483742
RightToes  0.000482159 0.542163 -0.142577
Spine  7.68734 -1.10261 8.71136
Spine1  19.8433 1.04149 -4.19625
HEad  44.9531 2.38445 -3.26583
LeftShoulder1  7.06873 -11.8754 -39.7283
LeftArm  -7.71821 6.30556 -32.0807
LeftForeArm  34.2524 -18.8792 -3.61946
LeftHand  -0.25398 0.0180481 5.50724
RightShoulder  5.70568 10.1398 35.8415
RightArm  1.69662 9.73032 39.5216
RightForeArm  11.891 15.0512 6.47207
RightHand  -1.05062 2.97056 -14.7998
LeftUpLeg  -3.97388 7.33816 9.42965
LeftLeg  -1.38849 7.03498 -3.5136
LeftFoot  10.7377 0.762573 -4.24511
LeftToes  1.06244e-005 4.65856e-005 -8.18505e-006
227
root  -28.0575 40.7384 0.547499 179.559 -84.6504 176.074
RightUpLeg  -1.79209 -12.3782 -5.6608
RightLeg  13.7296 -5.51192 2.83852
RightFoot  -6.5881 -0.00627919 -0.924566
RightToes  0.000482159 0.542163 -0.142577
Spine  8.11096 -1.42774 8.67838
Spine1  20.5215 0.565585 -3.67664
HEad  46.2847 1.86524 -2.88531
LeftShoulder1  7.13694 -12.0419 -39.6781
LeftArm  -6.8754 4.04973 -32.2327
LeftForeArm  33.9897 -19.6688 -3.52488
LeftHand  -0.25398 0.0180481 5.50724
RightShoulder  5.65853 10.1281 35.5379
RightArm  1.36779 9.70674 39.2666
RightForeArm  12.3374 14.4694 6.67123
RightHand  -1.09425 3.23093 -14.9572
LeftUpLeg  -4.50502 7.55565 9.82453
LeftLeg  -0.914215 7.19049 -3.49988
LeftFoot  10.4438 0.783033 -4.40055
LeftToes  1.06244e-005 4.65856e-005 -8.18505e-006
228
root  -27.8271 40.6989 0.330532 179.796 -85.5532 175.698
RightUpLeg  -2.0438 -12.6587 -5.40018
RightLeg  14.1906 -6.25814 2.8651
RightFoot  -6.7277 0.00549365 -1.26744
RightToes  0.000482159 0.542163 -0.142577
Spine  8.56872 -1.77433 8.40519
Spine1  21.2392 -0.0136403 -2.99901
HEad  47.3862 1.13116 -2.4883
LeftShoulder1  7.20329 -12.2112 -39.6099
LeftArm  -5.8559 1.90533 -32.5102
LeftForeArm  33.606 -20.7609 -3.39874
LeftHand  -0.25398 0.0180481 5.50724
RightShoulder  5.59495 10.0898 35.1938
RightArm  0.892429 9.77605 39.0006
RightForeArm  13.3124 13.687 6.90102
RightHand  -1.11508 3.38993 -14.9724
LeftUpLeg  -5.22006 8.05802 10.0354
LeftLeg  0.503069 8.88756 -3.49373
LeftFoot  9.7046 0.82607 -4.76713
LeftToes  1.06244e-005 4.65856e-005 -8.18505e-006
